<?xml version="1.0" encoding="UTF-8" standalone="no"?>
<!-- Created with Inkscape (http://www.inkscape.org/) -->

<svg
   width="191.51614mm"
   height="136.51613mm"
   viewBox="0 0 191.51614 136.51613"
   version="1.1"
   id="svg5"
   xml:space="preserve"
   inkscape:version="1.2.1 (9c6d41e410, 2022-07-14)"
   sodipodi:docname="wave-logo.svg"
   xmlns:inkscape="http://www.inkscape.org/namespaces/inkscape"
   xmlns:sodipodi="http://sodipodi.sourceforge.net/DTD/sodipodi-0.dtd"
   xmlns="http://www.w3.org/2000/svg"
   xmlns:svg="http://www.w3.org/2000/svg"><sodipodi:namedview
     id="namedview7"
     pagecolor="#ffffff"
     bordercolor="#000000"
     borderopacity="0.25"
     inkscape:showpageshadow="2"
     inkscape:pageopacity="0.0"
     inkscape:pagecheckerboard="0"
     inkscape:deskcolor="#d1d1d1"
     inkscape:document-units="mm"
     showgrid="false"
     inkscape:zoom="0.74564394"
     inkscape:cx="356.73863"
     inkscape:cy="241.40208"
     inkscape:window-width="1920"
     inkscape:window-height="1017"
     inkscape:window-x="-8"
     inkscape:window-y="-8"
     inkscape:window-maximized="1"
     inkscape:current-layer="layer1" /><defs
     id="defs2" /><g
     inkscape:label="Capa 1"
     inkscape:groupmode="layer"
     id="layer1"
     style="display:inline"
     transform="translate(-10.693547,0.30645156)"><g
       inkscape:groupmode="layer"
       id="layer2"
       inkscape:label="Capa 2"
       style="display:inline"><rect
         style="fill:#000000;stroke:#000000;stroke-width:4.8025;stroke-dasharray:none"
         id="rect2576"
         width="186.71364"
         height="131.71362"
         x="13.094797"
         y="2.0947983" /></g><path
       style="fill:#ffffff;stroke:none;stroke-width:0.224065"
       d="m 116.25598,29.57145 c 2.89089,-0.832403 5.55234,-2.290307 8.51449,-2.99031 9.95679,-2.352866 21.18628,-1.531442 30.02476,3.9818 17.06079,10.642211 18.28777,37.722757 0.89626,48.699946 -2.39772,1.51334 -4.89986,2.66459 -7.61822,3.47458 -17.93016,5.342617 -33.187,-5.34822 -49.294375,-11.253908 -22.542101,-8.264877 -48.114463,-7.463395 -67.219625,8.484688 -5.485233,4.57877 -12.301841,11.763887 -14.340186,18.839422 5.020813,-3.3211 9.241555,-7.592225 14.564252,-10.562005 13.025147,-7.267107 27.629282,-8.748407 42.124298,-5.793877 9.904588,2.01883 19.244755,5.529927 28.232236,10.139852 11.56826,5.93348 23.33102,13.192752 36.29859,15.531772 9.73721,1.75623 19.92882,0.27426 29.1285,-3.19517 4.90479,-1.84989 9.47304,-4.67289 13.44393,-8.076442 4.80777,-4.12079 8.45645,-9.297375 11.01012,-15.073102 10.21447,-23.102717 1.55053,-52.410473 -22.2134,-62.993508 -13.29985,-5.923013 -29.6369,-6.794493 -42.57242,0.60892 -3.93773,2.25365 -9.14994,5.850191 -10.97921,10.177342 m 15.68458,-0.896261 c -4.92877,-1.214278 -10.29827,-0.185527 -14.34019,2.890219 -2.26171,1.721047 -4.11249,4.450612 -3.46875,7.41679 1.29151,5.953418 9.58686,4.787829 12.4475,0.895365 1.43895,-1.957884 1.61955,-4.505731 2.46338,-6.721066 0.65427,-1.718358 1.87923,-2.991273 2.89806,-4.481308 m 11.20327,-0.224066 c -4.99554,-0.631416 -14.56067,0.995299 -12.87726,8.290421 1.05826,4.585274 6.74414,4.238869 9.17368,1.11943 2.10779,-2.706486 1.71074,-6.483108 3.70358,-9.409851 M 22.372588,99.703928 c 14.317108,-5.96081 29.801821,-7.650265 44.813084,-2.83577 9.634813,3.09031 18.418849,8.898762 27.111915,13.944042 13.919373,8.07845 28.788133,15.78899 45.037133,17.53491 7.85752,0.84428 15.99065,0.49361 23.52687,-2.13512 15.90237,-5.54719 28.8408,-21.02003 29.57663,-38.159467 -1.56801,1.87297 -2.52947,4.297355 -4.00965,6.273835 -3.02555,4.04012 -6.78672,7.267112 -11.00273,10.005642 -3.66078,2.37801 -7.74998,4.0101 -11.87547,5.38026 -7.02669,2.33364 -15.45245,3.65383 -22.85467,2.94937 C 121.36355,110.6316 102.60391,97.273038 83.094316,89.531583 68.160356,83.605946 51.927713,83.310856 36.93684,89.307293 31.868951,91.334643 24.970582,94.614728 22.372588,99.703928 Z"
       id="path2308" /></g></svg>
